v 10 0 0
vn 0 0 1
vt 0 0
v 4.89074 1.03956 0
vn 0 0 1
vt 0 0
v 9.13545 4.06737 0
vn 0 0 1
vt 0 0
v 4.04508 2.93893 0
vn 0 0 1
vt 0 0
v 6.69131 7.43145 0
vn 0 0 1
vt 0 0
v 2.5 4.33013 0
vn 0 0 1
vt 0 0
v 3.09017 9.51057 0
vn 0 0 1
vt 0 0
v 0.522642 4.97261 0
vn 0 0 1
vt 0 0
v -1.04529 9.94522 0
vn 0 0 1
vt 0 0
v -1.54509 4.75528 0
vn 0 0 1
vt 0 0
v -5 8.66025 0
vn 0 0 1
vt 0 0
v -3.34565 3.71572 0
vn 0 0 1
vt 0 0
v -8.09017 5.87785 0
vn 0 0 1
vt 0 0
v -4.56773 2.03368 0
vn 0 0 1
vt 0 0
v -9.78148 2.07912 0
vn 0 0 1
vt 0 0
v -5 -4.37114e-07 0
vn 0 0 1
vt 0 0
v -9.78148 -2.07912 0
vn 0 0 1
vt 0 0
v -4.56773 -2.03368 0
vn 0 0 1
vt 0 0
v -8.09017 -5.87785 0
vn 0 0 1
vt 0 0
v -3.34565 -3.71572 0
vn 0 0 1
vt 0 0
v -5 -8.66025 0
vn 0 0 1
vt 0 0
v -1.54509 -4.75528 0
vn 0 0 1
vt 0 0
v -1.04529 -9.94522 0
vn 0 0 1
vt 0 0
v 0.522639 -4.97261 0
vn 0 0 1
vt 0 0
v 3.09016 -9.51057 0
vn 0 0 1
vt 0 0
v 2.5 -4.33013 0
vn 0 0 1
vt 0 0
v 6.6913 -7.43146 0
vn 0 0 1
vt 0 0
v 4.04508 -2.93893 0
vn 0 0 1
vt 0 0
v 9.13545 -4.06738 0
vn 0 0 1
vt 0 0
v 4.89074 -1.03957 0
vn 0 0 1
vt 0 0
f 30//30 1//1 2//2 3//3 4//4 5//5 6//6 7//7 8//8 9//9 10//10 11//11 12//12 13//13 14//14 15//15 16//16 17//17 18//18 19//19 20//20 21//21 22//22 23//23 24//24 25//25 26//26 27//27 28//28 29//29 
